PathFileType	4	(X/Y/Z)	Kaydara	
DataRate	CameraRate	NumFrames	NumMarkers	Units	OrigDataRate	OrigDataStartFrame	OrigNumFrames	
240.00	240.00	4	72	mm	240.00	1	355	
Frame#	Time	Hips			RightUpLeg			RightLeg			RightFoot			RightFoot_End			LeftUpLeg			LeftLeg			LeftFoot			LeftFoot_End			Spine			Spine1			Spine2			Spine3			Neck			Head			Head_End			RightShoulder			RightArm			RightForeArm			RightHand			RightHandThumb1			RightHandThumb2			RightHandThumb3			RightHandThumb3_End			RightInHandIndex			RightHandIndex1			RightHandIndex2			RightHandIndex3			RightHandIndex3_End			RightInHandMiddle			RightHandMiddle1			RightHandMiddle2			RightHandMiddle3			RightHandMiddle3_End			RightInHandRing			RightHandRing1			RightHandRing2			RightHandRing3			RightHandRing3_End			RightInHandPinky			RightHandPinky1			RightHandPinky2			RightHandPinky3			RightHandPinky3_End			LeftShoulder			LeftArm			LeftForeArm			LeftHand			LeftHandThumb1			LeftHandThumb2			LeftHandThumb3			LeftHandThumb3_End			LeftInHandIndex			LeftHandIndex1			LeftHandIndex2			LeftHandIndex3			LeftHandIndex3_End			LeftInHandMiddle			LeftHandMiddle1			LeftHandMiddle2			LeftHandMiddle3			LeftHandMiddle3_End			LeftInHandRing			LeftHandRing1			LeftHandRing2			LeftHandRing3			LeftHandRing3_End			LeftInHandPinky			LeftHandPinky1			LeftHandPinky2			LeftHandPinky3			LeftHandPinky3_End			
		X1	Y1	Z1	X2	Y2	Z2	X3	Y3	Z3	X4	Y4	Z4	X5	Y5	Z5	X6	Y6	Z6	X7	Y7	Z7	X8	Y8	Z8	X9	Y9	Z9	X10	Y10	Z10	X11	Y11	Z11	X12	Y12	Z12	X13	Y13	Z13	X14	Y14	Z14	X15	Y15	Z15	X16	Y16	Z16	X17	Y17	Z17	X18	Y18	Z18	X19	Y19	Z19	X20	Y20	Z20	X21	Y21	Z21	X22	Y22	Z22	X23	Y23	Z23	X24	Y24	Z24	X25	Y25	Z25	X26	Y26	Z26	X27	Y27	Z27	X28	Y28	Z28	X29	Y29	Z29	X30	Y30	Z30	X31	Y31	Z31	X32	Y32	Z32	X33	Y33	Z33	X34	Y34	Z34	X35	Y35	Z35	X36	Y36	Z36	X37	Y37	Z37	X38	Y38	Z38	X39	Y39	Z39	X40	Y40	Z40	X41	Y41	Z41	X42	Y42	Z42	X43	Y43	Z43	X44	Y44	Z44	X45	Y45	Z45	X46	Y46	Z46	X47	Y47	Z47	X48	Y48	Z48	X49	Y49	Z49	X50	Y50	Z50	X51	Y51	Z51	X52	Y52	Z52	X53	Y53	Z53	X54	Y54	Z54	X55	Y55	Z55	X56	Y56	Z56	X57	Y57	Z57	X58	Y58	Z58	X59	Y59	Z59	X60	Y60	Z60	X61	Y61	Z61	X62	Y62	Z62	X63	Y63	Z63	X64	Y64	Z64	X65	Y65	Z65	X66	Y66	Z66	X67	Y67	Z67	X68	Y68	Z68	X69	Y69	Z69	X70	Y70	Z70	X71	Y71	Z71	X72	Y72	Z72	

1	0.0	2921.0129	906.651	56.2195	3006.005319121432	894.6543267466503	4.404475137105271	2924.3542394647316	495.1720385019076	-93.01974411256776	2891.47263113908	107.29940160734765	-159.7760761964998	2816.5310442001746	32.74160660271594	-0.49485940491490327	2845.633687681442	890.4867102675205	119.79053136591712	2778.2989774210455	487.3627203361878	212.45053437897184	2740.064504744761	55.905429586128434	297.8015178012786	2605.0344748786065	-16.441969275503713	182.87715299211817	2875.4243655749347	1032.2311631071095	4.8706086906382176	2824.4535364385433	1096.2850076759855	-46.89343097481972	2766.9840547277363	1157.2049835373214	-103.11607390665517	2705.9096937718073	1205.96860628733	-160.67888373162924	2640.3231098214565	1258.4505582634204	-221.51005140534195	2579.412264368297	1306.1653460900523	-276.0487861679539	2462.993655219635	1402.8903750502886	-327.31480286421385	2685.3509601464816	1243.109224607996	-223.24742033909627	2740.4687458110498	1226.4073118392407	-334.0684497281443	2756.1496435345052	950.2360510523812	-312.6214136825301	2817.90160872869	696.3822428398314	-338.0758683896769	2819.572978906318	672.189610758023	-346.69668410067385	2809.7159785426215	656.5665322090956	-353.2334430352143	2803.7681225830847	644.6984639241987	-356.1958095932751	2799.5937417348246	633.9592327997311	-357.3053416665546	2824.5535010721437	664.7522425731815	-341.5886126256756	2831.4421354458714	620.0038731966367	-341.926116638328	2828.0015791442397	597.8129737848495	-343.22874794010374	2820.061578738659	593.2065843700506	-345.89356530993547	2809.5766782443116	595.5926067382893	-349.3504672688248	2826.4152302860093	664.0475095700125	-337.3035306841578	2834.143559842089	620.0175527225505	-335.31461136696043	2830.6022522232083	595.866202219981	-336.1708727156939	2821.125134785039	590.3391859790631	-339.1146730172453	2809.7024370593954	592.9647224294474	-342.7653102243848	2827.6457301158093	664.5852853438568	-334.2463368975044	2835.9061855840555	625.2816561662513	-329.7480745043012	2833.0241144545143	604.366553798193	-329.920102681078	2823.9912933095784	599.1071851860314	-332.45465534048253	2813.3025423246977	601.609921928213	-335.7426506316903	2828.14772012284	667.3384100858128	-330.8797287166031	2836.3411196022303	632.6157174725893	-324.6075310107122	2834.315679616195	616.2509492399432	-323.86909942278834	2827.863718196991	612.6001478902809	-325.29397359507624	2818.4738422885107	614.9238667231831	-327.9626754492424	2638.1455965551754	1239.5246389165343	-177.8321279895029	2573.750323638967	1177.1421731667035	-81.18922426403677	2697.1927554842528	986.6282822056062	-197.95970579916812	2862.2997181053856	794.4860609078962	-301.10463175416555	2848.062740943782	782.1551416376665	-319.34459678561467	2843.850072872165	761.7509379163462	-353.10072578324406	2841.7149133975777	745.6793324551867	-377.1724774418609	2840.6180590907697	730.688144522965	-397.7225276244224	2848.6181718951634	774.2820875607893	-321.9850394320568	2835.0058671067336	736.7857285549892	-360.5570593937926	2830.8795122393662	711.047372151955	-393.0334848844556	2831.654629970609	699.6673745689732	-412.8641663983614	2834.5494418467893	693.3655226350222	-429.0352549814531	2851.518002738261	770.5394256727106	-322.4442421836923	2839.8079641125596	731.9420978890678	-360.31300696669206	2835.7387465552897	703.4846638543792	-395.693760401622	2836.8819085818936	689.5767349146595	-419.5911594350082	2840.1504840657944	682.5946475523051	-437.27184689133657	2853.862316962813	768.828843434101	-321.73852966696285	2845.251337831266	732.68501292816	-354.929752318507	2842.1666604398206	707.5625080111737	-385.6498198614748	2843.5147198337067	693.9778646569182	-408.63813156014686	2846.7042937886117	687.3327035231986	-425.23274965412963	2857.366513311931	768.1267089349167	-320.16883802217956	2851.450758690849	734.4528404896109	-349.5025446457132	2849.7394748451807	713.995946934005	-373.77364670924834	2851.089812300787	703.9229120820964	-390.38256600670286	2854.126508902898	697.9418043190078	-404.99127488737577
2	0.004	2921.0129	906.651	56.2195	3006.0382833892904	894.6676621792867	4.416469770400802	2924.4582249562104	495.15224911620055	-92.91871041390165	2891.6147952809074	107.29165628714864	-159.7022885149714	2816.6630048921843	32.73040403693734	-0.4275755191950239	2845.5917007731687	890.4676319800953	119.77197964351139	2778.2445111400384	487.3318071521228	212.37657928399386	2740.0887431947563	55.86873513405728	297.7526312806101	2605.0618320606063	-16.484885520581948	182.82833233278078	2875.4636960564894	1032.2564943003656	4.899187209014268	2824.520482643086	1096.3281001250564	-46.87031743350793	2767.0880531001167	1157.2736263752165	-103.10562988464042	2706.05987842928	1206.0697795145134	-160.6979820578157	2640.5205878315783	1258.5848652601437	-221.56040170926607	2579.649830605988	1306.3271893166723	-276.12820595727584	2463.2150411278185	1403.0184023736333	-327.4263335963613	2685.576545002187	1243.2662529401393	-223.28792968391554	2740.9385947142027	1226.797693358486	-334.2698867237572	2756.473486826197	950.4451616341479	-313.26303958507003	2818.018022623554	696.548606448742	-339.2481207419666	2819.733186658959	672.3676579149721	-347.9734922809676	2809.8101691584575	656.7148104989795	-354.6394759486398	2803.80264727038	644.822928349557	-357.69069502557164	2799.566812275423	634.0612073472468	-358.8733251946458	2824.675786225858	664.9236680425432	-342.86989882537983	2831.4916866256235	620.1570674770417	-343.374264515247	2827.9623798761445	597.9355555863242	-344.79850583063757	2819.963065744771	593.3042207845334	-347.5299233829044	2809.426283590765	595.6656066435173	-351.0358768898074	2826.5009965467166	664.2103343693803	-338.576168871451	2834.1386406679226	620.1579483168565	-336.74532283382933	2830.4958572930254	595.9720962329943	-337.7326110748966	2820.94495974597	590.4144567431858	-340.7559579020317	2809.464412733184	593.0127811549888	-344.45987440837513	2827.707833859933	664.7426571362544	-335.50857837803767	2835.867306017297	625.4146568221344	-331.1428674263722	2832.8921949904666	604.4683929477134	-331.42713870645156	2823.7857686212865	599.1789081540263	-334.03737803089996	2813.0414685037363	601.6557843808548	-337.374976409249	2828.182428121036	667.4887790886511	-332.1253893763357	2836.2672444775076	632.7399398544944	-325.96449786000085	2834.1605742891265	616.3486266887692	-325.31230797950667	2827.6516700960433	612.6750867378786	-326.7906289079692	2818.2107148252026	614.9754541376403	-329.5022594876838	2638.2812740899844	1239.6128986261642	-177.869861541455	2573.6589626495656	1177.0782044151972	-81.23201304866781	2697.122274686506	986.6428795103412	-198.25642038246068	2862.5347647891704	794.5284568599587	-301.63264119955494	2848.2663515123845	782.2393286992542	-320.0211933108825	2844.0961626876756	761.8798511839987	-353.85607426071596	2841.989731276735	745.8348858861134	-377.9662022353092	2840.91609607694	730.8620485411086	-398.5341590007847	2848.807375463114	774.3527892892632	-322.62020302314767	2835.158477694499	736.8879778761518	-361.2777614027853	2831.051840299807	711.1777555230834	-393.7925636964056	2831.8675523394513	699.8198663986253	-413.6422706988795	2834.8150779271155	693.5394261629153	-429.8258453621463	2851.7083039543436	770.5970606210658	-323.03063882246374	2839.9631526901153	732.0234337056406	-360.9564633465335	2835.9157715076403	703.5948809272066	-396.37235423114504	2837.1080627072165	689.7127507077745	-420.2894732840022	2840.4343910245893	682.7536693232764	-437.9822505660615	2854.053855538459	768.8763549679334	-322.28841238862066	2845.41110310858	732.7447274892006	-355.4994408662184	2842.3458441267567	707.6454999009404	-386.24315633969917	2843.741498648911	694.0847350451485	-409.24678208262935	2846.9854731806395	687.4607277667712	-425.85101180656073	2857.564252946273	768.162316828323	-320.67318277908146	2851.621584889853	734.49202368809	-349.9974238095576	2849.9265975567755	714.0507593555645	-374.2764875727852	2851.3120128948517	703.9936870183743	-390.89126735799863	2854.3971058829293	698.030479989362	-405.5054361264596
3	0.008	2921.0129	906.651	56.2195	3006.067437150014	894.6779938654622	4.4268887459985935	2924.5260424871735	495.1354768572077	-92.81864236635043	2891.738678695914	107.28704423961013	-159.63172761216177	2816.776680933196	32.723195029060285	-0.3631077148505749	2845.5544021192804	890.4523376588636	119.75637450319017	2778.1670239155865	487.3109749554805	212.31271588535296	2740.094358545596	55.84220288918747	297.7294448075392	2605.0701405608884	-16.517262986472005	182.80543191276504	2875.4992097690347	1032.2784162071634	4.92173863561723	2824.5805640510684	1096.3642407319023	-46.856000428913596	2767.1818401609303	1157.331423084781	-103.10619474304121	2706.1966194547363	1206.1564970316308	-160.72878209767828	2640.7012881581345	1258.701028354383	-221.62303224135832	2579.8677879380216	1306.4677890134208	-276.2202605218419	2463.418641328037	1403.127963230739	-327.5488082872386	2685.783185893939	1243.4040926504322	-223.33928242762815	2741.375277770593	1227.1603709644864	-334.46534270942345	2756.7661835390422	950.6576807374578	-313.8682771891159	2818.125500938875	696.7824676393341	-340.4719309907671	2819.8791579975855	672.6422058421342	-349.2970032254775	2809.8972629904492	656.9891968716722	-356.09438438712675	2803.836647174492	645.0917596026794	-359.2377804599226	2799.546205483416	634.3207514608262	-360.49782987087264	2824.788286680444	665.1854164589502	-344.2037768875184	2831.539543941819	620.4283602640448	-344.8839896802934	2827.931376935996	598.1975928510224	-346.4369409185015	2819.879304616779	593.5554702356602	-349.2376646890037	2809.2963415095373	595.9045313295779	-352.793757740907	2826.5812507484907	664.4561934235719	-339.90605290654344	2834.138410728035	620.4045267926552	-338.2445614208121	2830.40548647349	596.2064284521998	-339.37121009994826	2820.7889785369234	590.634742836014	-342.4776494219806	2809.2569465638708	593.2190817914706	-346.23617223958416	2827.7672063861105	664.9771746120957	-336.83112963058375	2835.8371604441772	625.6403478549014	-332.61075468642787	2832.779428268167	604.6812116715332	-333.015113712615	2823.607563277948	599.3770118809882	-335.70476867336515	2812.8138336682828	601.8401848855998	-339.09336416872424	2828.2176213838593	667.7089422450091	-333.4345910249742	2836.2062513723567	632.9435882749118	-327.3987435098745	2834.027485069299	616.538578600569	-326.8399278410749	2827.467977663633	612.8526642740729	-328.3748270334221	2817.9815843988877	615.1399493937831	-331.1308582079293	2638.4047020346597	1239.6865774701987	-177.92111262852566	2573.5776784238365	1177.0069170843692	-81.29239273314946	2697.0299918595374	986.671805376848	-198.60747100091334	2862.7093379851353	794.6205256393779	-302.22355750338943	2848.4177169232935	782.3731703218454	-320.74546265410123	2844.2825298359708	762.0426109267252	-354.65467580096504	2842.1975944115984	746.0142054555783	-378.80172619949894	2841.139417261782	731.0521091732376	-399.3877667437286	2848.9388636566177	774.4784230167021	-323.3066598357401	2835.2456034961438	737.0481862645956	-362.0415118758343	2831.1477585323437	711.3577792317458	-394.5932459742143	2831.9964956949225	700.0101133930726	-414.46275323791025	2834.9899461391706	693.7367187989832	-430.66058374670115	2851.8353910566725	770.7115513977943	-323.67323671847805	2840.04457630981	732.1656213647907	-361.650732961581	2836.0064027909816	703.7571034847892	-397.10086424374583	2837.2383519848527	689.8865435041856	-421.0389641857457	2840.614839673305	682.9348032086435	-438.7459262208437	2854.1785345962007	768.9821165945018	-322.89813960077555	2845.491509472763	732.8678132391547	-356.12720670862205	2842.433954788488	707.7843809930175	-386.89449193714785	2843.867693446965	694.2338915977627	-409.9150213521323	2847.158751141322	687.6163666483085	-426.5310096310091	2857.6908315408973	768.2568079207712	-321.24208285473094	2851.707269842724	734.5955557850018	-350.55802252989395	2850.0181504696566	714.1642627690734	-374.84609114896955	2851.431199302713	704.1133922607016	-391.46842578861987	2854.557914632056	698.1551821177679	-406.09026401780056
4	0.013	2921.0129	906.651	56.2195	3006.092436071345	894.6854311172506	4.435437138339509	2924.5637320831975	495.12153244945694	-92.72385797353782	2891.847086943849	107.28531172927828	-159.5678738334793	2816.875279003147	32.7192913168963	-0.30495885605457307	2845.522088987696	890.440626611916	119.74377740513475	2778.077861575176	487.2981835996775	212.2588321439733	2740.0896643471115	55.82410327229503	297.72889276844415	2605.0669980503476	-16.53963630841774	182.8053808680156	2875.53112549665	1032.2973358251882	4.939312828625969	2824.635731308591	1096.3957805322775	-46.84852570137785	2767.2677235233273	1157.3812267022943	-103.11539114575986	2706.3226577303917	1206.2321186385925	-160.76873844517613	2640.868387422148	1258.8029047384439	-221.6952497943523	2580.0696405922113	1306.5913603751553	-276.3221422121739	2463.6068454052374	1403.2218148160114	-327.6797802450711	2685.9743101405397	1243.5266290262985	-223.39910804920353	2741.783168930408	1227.4984873907067	-334.6535475247333	2757.0358635594616	950.8705493400446	-314.4423195086583	2818.2383135350483	697.071731267069	-341.7380333473572	2820.025904145891	672.9961110940586	-350.656370601827	2809.9933460263687	657.3674448305075	-357.58424107473036	2803.887083606472	645.4796277711557	-360.8209922434669	2799.5497208993265	634.7103670962687	-362.1609919701421	2824.9065611196197	665.5216494890957	-345.5793774933366	2831.6035982747117	620.7975802576166	-346.44142929130504	2827.92795098686	598.575459391136	-348.12744131033105	2819.830245197194	593.9342704496763	-350.9983355746265	2809.207031651023	596.281107822737	-354.60404216394704	2826.671808801985	664.7706573998663	-341.28238404478094	2834.1610999960503	620.7393949182898	-339.798646870036	2830.351021772429	596.5477349673839	-341.07000775642473	2820.677772177715	590.9757371016814	-344.26087227101505	2809.100877308325	593.5569446602035	-348.07356673905093	2827.8397887001556	665.2755211661721	-338.203324171181	2835.833969494159	625.9432937345742	-334.1386203527729	2832.705497808511	604.9866715573477	-334.66833585759673	2823.4770472163764	599.68052642652	-337.4390127823197	2812.6402558961327	602.1399754546285	-340.87834881657454	2828.2692965142096	667.9869383934598	-334.79685792524054	2836.1762716056332	633.21361479661	-328.8976828200239	2833.935740627668	616.8057679708626	-328.4373578725846	2827.332482803584	613.1160864843382	-330.0304411270718	2817.806519816575	615.3987224731917	-332.830895396567	2638.518502648999	1239.7491716262855	-177.98293632909565	2573.507598682575	1176.9312131134475	-81.36661012841925	2696.922731617579	986.7138374297117	-199.00082993203662	2862.8310325962625	794.7568877599113	-302.8694551853421	2848.5232802897426	782.5517045215364	-321.5095482313771	2844.4149645864572	762.2369604681277	-355.48771216672736	2842.344025570806	746.2167328207261	-379.6695198941472	2841.2934824843264	731.2590253289482	-400.2731928169487	2849.0196401573926	774.6531066302854	-324.0365021414269	2835.2740602515323	737.2602867416712	-362.8398776880042	2831.1739781775614	711.5828154364781	-395.4262418785231	2832.047982987567	700.2354084262781	-415.31559655599267	2835.0803302896043	693.9569754262067	-431.5287192314313	2851.9067846030553	770.876592330686	-324.364009758417	2840.059851942982	732.36194525592	-362.3872133496197	2836.0182121861803	703.9661329679931	-397.8697386768242	2837.2801540428422	690.0952066058395	-421.8291956421378	2840.6989620935756	683.137626739169	-439.55163136757477	2854.244245596778	769.1395109488593	-323.5596197399533	2845.500859442756	733.0469645391915	-356.8043981427866	2842.4393259538074	707.9731142811364	-387.59433342552376	2843.9014877864342	694.4214794433432	-410.6324954600973	2847.2320978824737	687.7980876566613	-427.2616278286436	2857.754566388546	768.4033461291357	-321.86734986530337	2851.716773333093	734.7557769743689	-351.1755944852164	2850.02322587461	714.329732748125	-375.4730178083376	2851.4564064778297	704.276855828788	-392.1039646078121	2854.61781129022	698.3127736143513	-406.73500184977496
